#!OML:ASF H:\MichaelJackson\Top Level 1\Subject 1\Session 1\male.ASF
:FULLY-SPECIFIED
:DEGREES
827
root 5.57316 18.3059 10.5365 -345.683 247.893 4.38647
lowerback 2.6287 6.52944 1.62012
upperback -0.948133 8.76931 0.36954
thorax -2.25296 4.35115 -0.897858
lowerneck -5.79403 -11.7596 -4.92254
upperneck 0.818433 -15.4413 3.02792
head 1.87868 -7.68477 1.16468
rclavicle -4.8901e-014 -3.10104e-014
rhumerus 4.8716 66.5975 -94.5564
rradius 93.861
rwrist -3.24056
rhand 29.675 -11.0059
rfingers 7.12502
rthumb 53.4145 329.768
lclavicle -4.8901e-014 -3.10104e-014
lhumerus -63.5735 -19.4397 68.0749
lradius 64.5078
lwrist 19.955
lhand -22.2096 -3.71809
lfingers 7.12502
lthumb 4.20641 26.2201
rfemur -33.8027 -30.0315 -22.9379
rtibia 124.957
rfoot 9.32846 -13.5766
rtoes 47.3972
lfemur -7.86153 -10.4888 0.0129506
ltibia -1.74931e-014
lfoot 13.642 -9.48955
ltoes -1.44495
828
root 5.55459 18.1403 10.8042 -345.938 246.554 4.70479
lowerback 2.57549 6.48095 1.80322
upperback -0.956293 8.71054 0.519443
thorax -2.22943 4.31912 -0.836239
lowerneck -5.59599 -11.6992 -4.7912
upperneck 0.588642 -15.3758 2.99593
head 1.75148 -7.65473 1.15959
rclavicle 9.70069e-014 4.77083e-015
rhumerus 2.3457 67.2314 -96.0076
rradius 95.2138
rwrist -4.31109
rhand 29.489 -11.01
rfingers 7.12502
rthumb 53.247 329.655
lclavicle 9.70069e-014 4.77083e-015
lhumerus -64.4711 -18.0963 69.8593
lradius 64.7921
lwrist 20.6492
lhand -22.7162 -4.1214
lfingers 7.12502
lthumb 3.71717 25.8259
rfemur -32.8314 -30.8242 -24.4179
rtibia 127.045
rfoot 10.045 -11.8342
rtoes 47.2555
lfemur -7.12156 -9.50912 -1.14548
ltibia -3.18055e-015
lfoot 10.2315 -7.70793
ltoes -6.14515
829
root 5.53872 17.9728 11.0662 -346.144 245.276 4.963
lowerback 2.53887 6.40294 1.92154
upperback -0.940058 8.60976 0.673021
thorax -2.20104 4.26724 -0.735465
lowerneck -5.39871 -11.6499 -4.6705
upperneck 0.376069 -15.3253 3.02098
head 1.63769 -7.63103 1.17161
rclavicle 5.24792e-014 -1.66979e-014
rhumerus -0.249261 67.6555 -97.451
rradius 96.5133
rwrist -5.41401
rhand 28.7326 -11.0686
rfingers 7.12502
rthumb 52.564 329.167
lclavicle 5.24792e-014 -1.66979e-014
lhumerus -65.0289 -16.8239 71.6958
lradius 64.8608
lwrist 21.0608
lhand -23.2171 -4.45896
lfingers 7.12502
lthumb 3.23347 25.4963
rfemur -31.8501 -31.5786 -25.4819
rtibia 128.754
rfoot 10.7677 -10.6377
rtoes 47.4767
lfemur -10.9293 -8.90441 -2.29614
ltibia 9.39271
lfoot 1.56133 -5.16814
ltoes -9.70861
830
root 5.52504 17.8064 11.3213 -346.186 244.035 5.04574
lowerback 2.5017 6.29767 1.9001
upperback -0.897639 8.46749 0.824023
thorax -2.16572 4.19711 -0.559719
lowerneck -5.23366 -11.6157 -4.59325
upperneck 0.212206 -15.2914 3.09192
head 1.55452 -7.61462 1.19916
rclavicle -3.27995e-014 2.8625e-014
rhumerus -2.88162 67.8737 -98.8635
rradius 97.7072
rwrist -6.55381
rhand 27.5483 -11.1751
rfingers 7.12502
rthumb 51.4898 328.421
lclavicle -3.27995e-014 2.8625e-014
lhumerus -65.2432 -15.6325 73.5971
lradius 64.6973
lwrist 21.1328
lhand -23.7109 -4.73256
lfingers 7.12502
lthumb 2.75658 25.2294
rfemur -30.9022 -32.305 -26.092
rtibia 130.076
rfoot 11.4786 -10.0446
rtoes 48.0638
lfemur -12.3762 -8.17672 -3.33796
ltibia 13.7915
lfoot -4.52577 -2.87464
ltoes -11.5099
831
root 5.5137 17.6436 11.5688 -345.989 242.818 4.8888
lowerback 2.45265 6.15935 1.72785
upperback -0.836745 8.27584 0.933658
thorax -2.11968 4.10499 -0.340734
lowerneck -5.11554 -11.5907 -4.53507
upperneck 0.107079 -15.2677 3.20312
head 1.50454 -7.60217 1.23604
rclavicle 1.46107e-013 3.10104e-014
rhumerus -5.49217 67.8844 -100.263
rradius 98.7218
rwrist -7.68589
rhand 26.0108 -11.3225
rfingers 7.12502
rthumb 50.0875 327.501
lclavicle 1.46107e-013 3.10104e-014
lhumerus -65.1281 -14.5797 75.5267
lradius 64.3202
lwrist 20.8787
lhand -24.264 -4.92134
lfingers 7.12502
lthumb 2.2224 25.0468
rfemur -30.0305 -33.025 -26.2078
rtibia 131.008
rfoot 12.1471 -9.98795
rtoes 48.8103
lfemur -13.4246 -6.39497 -4.64694
ltibia 17.1752
lfoot -9.96669 -1.70524
ltoes -11.8722
832
root 5.50408 17.487 11.8087 -345.527 241.617 4.47215
lowerback 2.38733 5.98214 1.40893
upperback -0.770347 8.0279 0.981419
thorax -2.06869 3.9871 -0.101118
lowerneck -5.03783 -11.5732 -4.49863
upperneck 0.0617429 -15.252 3.34762
head 1.48625 -7.59271 1.28117
rclavicle 5.04913e-014 -2.06736e-014
rhumerus -8.0539 67.7055 -101.661
rradius 99.5033
rwrist -8.71956
rhand 24.1242 -11.516
rfingers 7.12502
rthumb 48.3559 326.439
lclavicle 5.04913e-014 -2.06736e-014
lhumerus -64.7372 -13.6947 77.4779
lradius 63.7713
lwrist 20.343
lhand -24.8555 -5.04831
lfingers 7.12502
lthumb 1.65111 24.9251
rfemur -29.2846 -33.7304 -25.7863
rtibia 131.541
rfoot 12.7645 -10.2883
rtoes 49.4892
lfemur -14.3611 -4.52283 -6.08977
ltibia 19.9532
lfoot -14.6745 -0.625522
ltoes -11.5212
833
root 5.49596 17.3387 12.0421 -344.802 240.429 3.81816
lowerback 2.30262 5.75995 0.970855
upperback -0.715965 7.71723 0.955136
thorax -2.02176 3.83942 0.131984
lowerneck -5.0043 -11.555 -4.47326
upperneck 0.0817146 -15.2337 3.50307
head 1.49864 -7.58119 1.32642
rclavicle 5.38706e-014 1.66979e-014
rhumerus -10.553 67.3758 -103.07
rradius 100.019
rwrist -9.50472
rhand 21.8321 -11.7647
rfingers 7.12502
rthumb 46.2378 325.24
lclavicle 5.38706e-014 1.66979e-014
lhumerus -64.122 -12.9903 79.4273
lradius 63.1025
lwrist 19.6066
lhand -25.42 -5.12636
lfingers 7.12502
lthumb 1.10592 24.8505
rfemur -28.7241 -34.4004 -24.791
rtibia 131.665
rfoot 13.2907 -10.7539
rtoes 50.0306
lfemur -15.313 -2.5661 -7.69089
ltibia 22.3104
lfoot -18.6018 0.434593
ltoes -10.8973
